<?xml version="1.0" encoding="UTF-8" standalone="no"?>
<!-- Created with Inkscape (http://www.inkscape.org/) -->

<svg
   xmlns:dc="http://purl.org/dc/elements/1.1/"
   xmlns:cc="http://creativecommons.org/ns#"
   xmlns:rdf="http://www.w3.org/1999/02/22-rdf-syntax-ns#"
   xmlns:svg="http://www.w3.org/2000/svg"
   xmlns="http://www.w3.org/2000/svg"
   xmlns:sodipodi="http://sodipodi.sourceforge.net/DTD/sodipodi-0.dtd"
   xmlns:inkscape="http://www.inkscape.org/namespaces/inkscape"
   width="210mm"
   height="297mm"
   viewBox="0 0 210 297"
   version="1.1"
   id="svg8"
   inkscape:version="0.92.2 (5c3e80d, 2017-08-06)"
   sodipodi:docname="logo.svg">
  <defs
     id="defs2">
    <clipPath
       clipPathUnits="userSpaceOnUse"
       id="clipPath4822">
      <g
         id="use4824"
         inkscape:label="Clip">
        <g
           style="display:inline;fill:none;stroke:#000000;stroke-width:0.95431584;stroke-miterlimit:4;stroke-dasharray:none;stroke-opacity:1"
           transform="matrix(1.0478711,0,0,1.0478711,-207.50062,166.95817)"
           id="g4850">
          <circle
             style="fill:none;fill-opacity:1;stroke:#000000;stroke-width:0.95431584;stroke-miterlimit:4;stroke-dasharray:none;stroke-opacity:1"
             r="69.16964"
             cy="169.62202"
             cx="99.029755"
             id="circle4842" />
          <circle
             r="36.5098"
             cy="103.55687"
             cx="98.846764"
             id="circle4844"
             style="fill:none;fill-opacity:1;stroke:#000000;stroke-width:0.95431584;stroke-miterlimit:4;stroke-dasharray:none;stroke-opacity:1" />
          <circle
             r="36.5098"
             cy="210.29407"
             cx="42.438232"
             id="circle4846"
             style="fill:none;fill-opacity:1;stroke:#000000;stroke-width:0.95431584;stroke-miterlimit:4;stroke-dasharray:none;stroke-opacity:1" />
          <circle
             r="36.5098"
             cy="209.91602"
             cx="155.21425"
             id="circle4848"
             style="fill:none;fill-opacity:1;stroke:#000000;stroke-width:0.95431584;stroke-miterlimit:4;stroke-dasharray:none;stroke-opacity:1" />
        </g>
      </g>
    </clipPath>
  </defs>
  <sodipodi:namedview
     id="base"
     pagecolor="#ffffff"
     bordercolor="#666666"
     borderopacity="1.0"
     inkscape:pageopacity="0.0"
     inkscape:pageshadow="2"
     inkscape:zoom="0.7"
     inkscape:cx="56.891123"
     inkscape:cy="634.3186"
     inkscape:document-units="mm"
     inkscape:current-layer="layer2"
     showgrid="false"
     inkscape:window-width="1920"
     inkscape:window-height="1027"
     inkscape:window-x="-8"
     inkscape:window-y="-8"
     inkscape:window-maximized="1"
     inkscape:snap-global="false" />
  <metadata
     id="metadata5">
    <rdf:RDF>
      <cc:Work
         rdf:about="">
        <dc:format>image/svg+xml</dc:format>
        <dc:type
           rdf:resource="http://purl.org/dc/dcmitype/StillImage" />
        <dc:title />
      </cc:Work>
    </rdf:RDF>
  </metadata>
  <g
     inkscape:label="Layer 1"
     inkscape:groupmode="layer"
     id="layer1"
     style="display:none">
    <rect
       style="fill:none;fill-opacity:1;stroke:#ff0000;stroke-width:1;stroke-miterlimit:4;stroke-dasharray:none;stroke-opacity:1"
       id="rect4549"
       width="185.96428"
       height="185.96428"
       x="6.0476198"
       y="76.639877" />
    <path
       style="fill:none;stroke:#ff0000;stroke-width:0.26458332px;stroke-linecap:butt;stroke-linejoin:miter;stroke-opacity:1"
       d="M 6.0476198,76.639877 C 198.62649,269.21875 199.19345,269.7857 199.19345,269.7857 L 201.46131,87.979164 192.0119,76.639877 c 0,0 202.40625,-202.406247 0,0 C -10.394348,279.04612 -10.394348,279.04612 -10.394348,279.04612 L -44.60119,125.39881"
       id="path4551"
       inkscape:connector-curvature="0" />
    <path
       style="fill:none;stroke:#ff0000;stroke-width:0.26458332px;stroke-linecap:butt;stroke-linejoin:miter;stroke-opacity:1"
       d="m 98.889724,169.51243 c 0,109.04598 0,324.19795 0,109.04598 0,-215.151978 0,-215.151978 0,-215.151978 L 6.0476198,76.639877 Z"
       id="path4553"
       inkscape:connector-curvature="0" />
    <path
       style="fill:none;stroke:#ff0000;stroke-width:0.26458332px;stroke-linecap:butt;stroke-linejoin:miter;stroke-opacity:1"
       d="m 98.889724,169.51243 c -108.511427,0 -361.882934,0 -108.7786964,0 253.1042424,0 253.1042424,0 253.1042424,0"
       id="path4555"
       inkscape:connector-curvature="0" />
    <path
       style="fill:none;stroke:#ff0000;stroke-width:0.26458332px;stroke-linecap:butt;stroke-linejoin:miter;stroke-opacity:1"
       d="M 98.889724,262.25496 C 195.24039,165.90429 199.24943,161.89525 199.24943,161.89525 l 0.93544,0.93545"
       id="path4557"
       inkscape:connector-curvature="0" />
    <path
       style="fill:none;stroke:#ff0000;stroke-width:0.26458332px;stroke-linecap:butt;stroke-linejoin:miter;stroke-opacity:1"
       d="M 6.1471992,169.7797 C 111.05049,274.68298 111.31776,274.95026 111.31776,274.95026"
       id="path4559"
       inkscape:connector-curvature="0" />
    <path
       style="fill:none;stroke:#ff0000;stroke-width:0.26458332px;stroke-linecap:butt;stroke-linejoin:miter;stroke-opacity:1"
       d="m -7.8844509,183.54408 c 0,0 0,0 106.2396369,-106.239633 C 215.28561,194.23487 215.28561,194.23487 215.28561,194.23487"
       id="path4561"
       inkscape:connector-curvature="0" />
    <rect
       style="fill:none;fill-opacity:1;stroke:#ff0000;stroke-width:1.29654825;stroke-miterlimit:4;stroke-dasharray:none;stroke-opacity:1"
       id="rect4565"
       width="74.244759"
       height="74.244759"
       x="61.767342"
       y="66.346817" />
    <path
       style="fill:none;stroke:#ff0000;stroke-width:0.34304506px;stroke-linecap:butt;stroke-linejoin:miter;stroke-opacity:1"
       d="m 61.76734,66.346821 c 74.97986,74.979849 75.16363,75.163619 75.16363,75.163619"
       id="path4567"
       inkscape:connector-curvature="0" />
    <path
       style="fill:none;stroke:#ff0000;stroke-width:0.34304506px;stroke-linecap:butt;stroke-linejoin:miter;stroke-opacity:1"
       d="M 136.0121,66.346821 C 61.76734,140.59158 61.76734,140.59158 61.76734,140.59158"
       id="path4569"
       inkscape:connector-curvature="0" />
    <path
       style="fill:none;stroke:#ff0000;stroke-width:0.34304506px;stroke-linecap:butt;stroke-linejoin:miter;stroke-opacity:1"
       d="m 98.889722,103.22416 c 0,-37.857471 0,-39.81773 0,-39.81773"
       id="path4571"
       inkscape:connector-curvature="0" />
    <path
       style="fill:none;stroke:#ff0000;stroke-width:0.34304506px;stroke-linecap:butt;stroke-linejoin:miter;stroke-opacity:1"
       d="m 98.889722,144.38957 c 0,0 0,0 0,-41.16541 -46.433595,0 -46.433595,0 -46.433595,0"
       id="path4573"
       inkscape:connector-curvature="0" />
    <path
       style="fill:#ff0000;stroke:#ff0000;stroke-width:0.34304506px;stroke-linecap:butt;stroke-linejoin:miter;stroke-opacity:1"
       d="m 98.889722,103.22416 c 45.821018,0 45.821018,0 45.821018,0"
       id="path4575"
       inkscape:connector-curvature="0" />
    <rect
       style="fill:none;fill-opacity:1;stroke:#ff0000;stroke-width:1.29654825;stroke-miterlimit:4;stroke-dasharray:none;stroke-opacity:1"
       id="rect4565-5"
       width="74.244759"
       height="74.244759"
       x="5.3588133"
       y="173.08401" />
    <path
       style="fill:none;stroke:#ff0000;stroke-width:0.34304506px;stroke-linecap:butt;stroke-linejoin:miter;stroke-opacity:1"
       d="m 5.35881,173.08402 c 74.979856,74.97985 75.16363,75.16362 75.16363,75.16362"
       id="path4567-0"
       inkscape:connector-curvature="0" />
    <path
       style="fill:none;stroke:#ff0000;stroke-width:0.34304506px;stroke-linecap:butt;stroke-linejoin:miter;stroke-opacity:1"
       d="M 79.603571,173.08402 C 5.35881,247.32878 5.35881,247.32878 5.35881,247.32878"
       id="path4569-2"
       inkscape:connector-curvature="0" />
    <path
       style="fill:none;stroke:#ff0000;stroke-width:0.34304506px;stroke-linecap:butt;stroke-linejoin:miter;stroke-opacity:1"
       d="m 42.481192,209.96136 c 0,-37.85747 0,-39.81773 0,-39.81773"
       id="path4571-5"
       inkscape:connector-curvature="0" />
    <path
       style="fill:none;stroke:#ff0000;stroke-width:0.34304506px;stroke-linecap:butt;stroke-linejoin:miter;stroke-opacity:1"
       d="m 42.481192,251.12677 c 0,0 0,0 0,-41.16541 -46.4335955,0 -46.4335955,0 -46.4335955,0"
       id="path4573-6"
       inkscape:connector-curvature="0" />
    <path
       style="fill:#ff0000;stroke:#ff0000;stroke-width:0.34304506px;stroke-linecap:butt;stroke-linejoin:miter;stroke-opacity:1"
       d="m 42.481192,209.96136 c 45.82102,0 45.82102,0 45.82102,0"
       id="path4575-5"
       inkscape:connector-curvature="0" />
    <g
       id="g4729">
      <circle
         style="fill:none;fill-opacity:1;stroke:#000000;stroke-width:50;stroke-miterlimit:4;stroke-dasharray:none;stroke-opacity:1"
         r="69.16964"
         cy="169.62202"
         cx="99.029755"
         id="path3699" />
      <circle
         r="36.5098"
         cy="103.55687"
         cx="98.846764"
         id="path4506"
         style="fill:#ffffff;fill-opacity:1;stroke:#000000;stroke-width:1.29654825;stroke-miterlimit:4;stroke-dasharray:none;stroke-opacity:1" />
      <circle
         r="36.5098"
         cy="210.29407"
         cx="42.438232"
         id="path4506-7"
         style="fill:#ffffff;fill-opacity:1;stroke:#000000;stroke-width:1.29654825;stroke-miterlimit:4;stroke-dasharray:none;stroke-opacity:1" />
      <circle
         r="36.5098"
         cy="209.91602"
         cx="155.21425"
         id="path4506-3"
         style="fill:#ffffff;fill-opacity:1;stroke:#000000;stroke-width:1.29654825;stroke-miterlimit:4;stroke-dasharray:none;stroke-opacity:1" />
    </g>
    <rect
       style="fill:none;fill-opacity:1;stroke:#ff0000;stroke-width:1.29654825;stroke-miterlimit:4;stroke-dasharray:none;stroke-opacity:1"
       id="rect4565-4"
       width="74.244759"
       height="74.244759"
       x="118.13483"
       y="172.70596" />
    <path
       style="fill:none;stroke:#ff0000;stroke-width:0.34304506px;stroke-linecap:butt;stroke-linejoin:miter;stroke-opacity:1"
       d="m 118.13483,172.70597 c 74.97986,74.97985 75.16363,75.16362 75.16363,75.16362"
       id="path4567-6"
       inkscape:connector-curvature="0" />
    <path
       style="fill:none;stroke:#ff0000;stroke-width:0.34304506px;stroke-linecap:butt;stroke-linejoin:miter;stroke-opacity:1"
       d="m 192.37959,172.70597 c -74.24476,74.24476 -74.24476,74.24476 -74.24476,74.24476"
       id="path4569-9"
       inkscape:connector-curvature="0" />
    <path
       style="fill:none;stroke:#ff0000;stroke-width:0.34304506px;stroke-linecap:butt;stroke-linejoin:miter;stroke-opacity:1"
       d="m 155.25721,209.58331 c 0,-37.85747 0,-39.81773 0,-39.81773"
       id="path4571-8"
       inkscape:connector-curvature="0" />
    <path
       style="fill:none;stroke:#ff0000;stroke-width:0.34304506px;stroke-linecap:butt;stroke-linejoin:miter;stroke-opacity:1"
       d="m 155.25721,250.74872 c 0,0 0,0 0,-41.16541 -46.43359,0 -46.43359,0 -46.43359,0"
       id="path4573-0"
       inkscape:connector-curvature="0" />
    <path
       style="fill:#ff0000;stroke:#ff0000;stroke-width:0.34304506px;stroke-linecap:butt;stroke-linejoin:miter;stroke-opacity:1"
       d="m 155.25721,209.58331 c 45.82102,0 45.82102,0 45.82102,0"
       id="path4575-9"
       inkscape:connector-curvature="0" />
    <path
       style="fill:none;stroke:#000000;stroke-width:0.26458332px;stroke-linecap:butt;stroke-linejoin:miter;stroke-opacity:1"
       d="m -4.3467261,247.86309 c 216.7693461,0 216.7693461,0 216.7693461,0 l 0.75256,0.20165"
       id="path4675"
       inkscape:connector-curvature="0" />
  </g>
  <g
     inkscape:groupmode="layer"
     id="layer2"
     inkscape:label="Layer 2"
     style="display:inline">
    <circle
       id="path3699-5"
       cx="108.85713"
       cy="134.46132"
       r="69.16964"
       style="fill:none;fill-opacity:1;stroke:#2b0000;stroke-width:50;stroke-miterlimit:4;stroke-dasharray:none;stroke-opacity:1" />
    <circle
       style="fill:#ffffff;fill-opacity:1;stroke:#2b0000;stroke-width:1.29654825;stroke-miterlimit:4;stroke-dasharray:none;stroke-opacity:1"
       id="path4506-8"
       cx="108.67414"
       cy="68.396164"
       r="36.5098" />
    <path
       style="fill:#ffffff;fill-opacity:1;stroke:#2b0000;stroke-width:1.29654825;stroke-miterlimit:4;stroke-dasharray:none;stroke-opacity:1"
       d="m 88.775414,175.13336 a 36.5098,36.5098 0 0 1 -36.5098,36.5098 36.5098,36.5098 0 0 1 -36.5098,-36.5098 36.5098,36.5098 0 0 1 36.5098,-36.5098 36.5098,36.5098 0 0 1 36.5098,36.5098 z"
       id="path4506-7-3" />
    <circle
       style="fill:#ffffff;fill-opacity:1;stroke:#2b0000;stroke-width:1.29654825;stroke-miterlimit:4;stroke-dasharray:none;stroke-opacity:1"
       id="path4506-3-1"
       cx="165.04164"
       cy="174.75531"
       r="36.5098" />
    <path
       style="opacity:1;fill:#800000;fill-opacity:1;stroke:#000000;stroke-width:5;stroke-miterlimit:4;stroke-dasharray:none;stroke-opacity:1;stroke-linejoin:miter"
       d="M -234.1797,21.872724 V 234.95016 H -24.015792 V 21.872724 Z m 103.82002,6.978386 a 36.509801,36.509801 0 0 1 27.40866,12.460221 c 38.588662,11.777339 66.943195,47.85501 66.943195,90.115439 0,9.36961 -1.394706,18.4349 -3.984767,26.99938 a 36.509801,36.509801 0 0 1 2.51044,13.29428 36.509801,36.509801 0 0 1 -36.509917,36.50992 36.509801,36.509801 0 0 1 -1.799373,-0.0899 c -15.39639,10.97799 -34.184138,17.4563 -54.384268,17.4563 -19.97758,0 -38.5729,-6.33788 -53.87371,-17.09663 a 36.509801,36.509801 0 0 1 -2.7187,0.108 36.509801,36.509801 0 0 1 -36.50992,-36.50991 36.509801,36.509801 0 0 1 2.81172,-14.02396 c -2.52238,-8.46074 -3.87935,-17.4061 -3.87935,-26.64746 0,-42.061218 28.08926,-77.999075 66.40008,-89.948524 a 36.509801,36.509801 0 0 1 27.58591,-12.627136 z m 23.16241,64.698374 a 36.509801,36.509801 0 0 1 -23.16241,8.321456 36.509801,36.509801 0 0 1 -23.00428,-8.193297 c -12.65906,7.701567 -20.98166,21.611517 -20.98166,37.749127 0,2.23305 0.16161,4.42256 0.46974,6.5598 a 36.509801,36.509801 0 0 1 23.57427,32.88843 c 6.01103,3.02492 12.84122,4.72168 20.1259,4.72168 7.11601,0 13.79727,-1.62093 19.70577,-4.51549 a 36.509801,36.509801 0 0 1 24.07036,-33.66254 c 0.256821,-1.9569 0.391708,-3.95615 0.391708,-5.99188 0,-16.22671 -8.412993,-30.20227 -21.189398,-37.877286 z"
       id="rect912"
       inkscape:connector-curvature="0" />
  </g>
</svg>
